<svg width="60" height="60" viewBox="0 0 60 60" fill="none" xmlns="http://www.w3.org/2000/svg">
<path d="M7.5 17.5C7.5 16.1739 8.02678 14.9021 8.96447 13.9645C9.90215 13.0268 11.1739 12.5 12.5 12.5H47.5C48.8261 12.5 50.0979 13.0268 51.0355 13.9645C51.9732 14.9021 52.5 16.1739 52.5 17.5M7.5 17.5V42.5C7.5 43.8261 8.02678 45.0979 8.96447 46.0355C9.90215 46.9732 11.1739 47.5 12.5 47.5H47.5C48.8261 47.5 50.0979 46.9732 51.0355 46.0355C51.9732 45.0979 52.5 43.8261 52.5 42.5V17.5M7.5 17.5L30 32.5L52.5 17.5" stroke="white" stroke-width="5" stroke-linecap="round" stroke-linejoin="round"/>
</svg>
