<svg width="60" height="60" viewBox="0 0 60 60" fill="none" xmlns="http://www.w3.org/2000/svg">
<path d="M22.5 25C22.5 25.3315 22.6317 25.6495 22.8661 25.8839C23.1005 26.1183 23.4185 26.25 23.75 26.25C24.0815 26.25 24.3995 26.1183 24.6339 25.8839C24.8683 25.6495 25 25.3315 25 25V22.5C25 22.1685 24.8683 21.8505 24.6339 21.6161C24.3995 21.3817 24.0815 21.25 23.75 21.25C23.4185 21.25 23.1005 21.3817 22.8661 21.6161C22.6317 21.8505 22.5 22.1685 22.5 22.5V25ZM22.5 25C22.5 28.3152 23.817 31.4946 26.1612 33.8388C28.5054 36.183 31.6848 37.5 35 37.5M35 37.5H37.5C37.8315 37.5 38.1495 37.3683 38.3839 37.1339C38.6183 36.8995 38.75 36.5815 38.75 36.25C38.75 35.9185 38.6183 35.6005 38.3839 35.3661C38.1495 35.1317 37.8315 35 37.5 35H35C34.6685 35 34.3505 35.1317 34.1161 35.3661C33.8817 35.6005 33.75 35.9185 33.75 36.25C33.75 36.5815 33.8817 36.8995 34.1161 37.1339C34.3505 37.3683 34.6685 37.5 35 37.5ZM7.5 52.5L11.625 43C8.46916 38.5202 7.05667 33.0426 7.65261 27.5953C8.24856 22.1479 10.812 17.1053 14.8618 13.4138C18.9116 9.72225 24.1694 7.63553 29.6485 7.54525C35.1275 7.45496 40.4512 9.36732 44.6205 12.9234C48.7897 16.4795 51.5178 21.4349 52.2929 26.8597C53.068 32.2844 51.8368 37.8055 48.8303 42.3869C45.8237 46.9683 41.2486 50.2951 35.9635 51.7428C30.6784 53.1905 25.0466 52.6597 20.125 50.25L7.5 52.5Z" stroke="white" stroke-width="5" stroke-linecap="round" stroke-linejoin="round"/>
</svg>
