<svg width="250" height="75" viewBox="0 0 250 75" fill="none" xmlns="http://www.w3.org/2000/svg">
<path d="M240.741 74.0741H9.25926C4.07407 74.0741 0 70 0 64.8148V9.25926C0 4.07407 4.07407 0 9.25926 0H240.741C245.926 0 250 4.07407 250 9.25926V64.8148C250 70 245.926 74.0741 240.741 74.0741Z" fill="black"/>
<path d="M240.741 1.48148C245 1.48148 248.519 5 248.519 9.25926V64.8148C248.519 69.0741 245 72.5926 240.741 72.5926H9.25926C5 72.5926 1.48148 69.0741 1.48148 64.8148V9.25926C1.48148 5 5 1.48148 9.25926 1.48148H240.741ZM240.741 0H9.25926C4.07407 0 0 4.25926 0 9.25926V64.8148C0 70 4.07407 74.0741 9.25926 74.0741H240.741C245.926 74.0741 250 70 250 64.8148V9.25926C250 4.25926 245.926 0 240.741 0Z" fill="#A6A6A6"/>
<path d="M87.7781 18.8889C87.7781 20.3704 87.4077 21.6667 86.4818 22.5926C85.3707 23.7038 84.0744 24.2593 82.4077 24.2593C80.7411 24.2593 79.4448 23.7038 78.3337 22.5926C77.2225 21.4815 76.667 20.1852 76.667 18.5186C76.667 16.8519 77.2225 15.5556 78.3337 14.4445C79.4448 13.3334 80.7411 12.7778 82.4077 12.7778C83.1485 12.7778 83.8892 12.963 84.63 13.3334C85.3707 13.7038 85.9262 14.0741 86.2966 14.6297L85.3707 15.5556C84.6299 14.6297 83.704 14.2593 82.4077 14.2593C81.2966 14.2593 80.1855 14.6297 79.4448 15.5556C78.5188 16.2963 78.1485 17.4075 78.1485 18.7038C78.1485 20.0001 78.5188 21.1112 79.4448 21.8519C80.3707 22.5926 81.2966 23.1482 82.4077 23.1482C83.704 23.1482 84.63 22.7778 85.5559 21.8519C86.1114 21.2964 86.4818 20.5556 86.4818 19.6297H82.4077V18.1482H87.7781V18.8889ZM96.2966 14.2593H91.2966V17.7778H95.9262V19.0741H91.2966V22.5926H96.2966V24.0741H89.8151V12.963H96.2966V14.2593ZM102.408 24.0741H100.926V14.2593H97.7781V12.963H105.556V14.2593H102.408V24.0741ZM110.926 24.0741V12.963H112.408V24.0741H110.926ZM118.704 24.0741H117.223V14.2593H114.074V12.963H121.667V14.2593H118.519V24.0741H118.704ZM136.297 22.5926C135.186 23.7038 133.889 24.2593 132.223 24.2593C130.556 24.2593 129.26 23.7038 128.148 22.5926C127.037 21.4815 126.482 20.1852 126.482 18.5186C126.482 16.8519 127.037 15.5556 128.148 14.4445C129.26 13.3334 130.556 12.7778 132.223 12.7778C133.889 12.7778 135.186 13.3334 136.297 14.4445C137.408 15.5556 137.963 16.8519 137.963 18.5186C137.963 20.1852 137.408 21.4815 136.297 22.5926ZM129.26 21.6667C130 22.4075 131.111 22.963 132.223 22.963C133.334 22.963 134.445 22.5926 135.186 21.6667C135.926 20.926 136.482 19.8149 136.482 18.5186C136.482 17.2223 136.111 16.1112 135.186 15.3704C134.445 14.6297 133.334 14.0741 132.223 14.0741C131.111 14.0741 130 14.4445 129.26 15.3704C128.519 16.1112 127.963 17.2223 127.963 18.5186C127.963 19.8149 128.334 20.926 129.26 21.6667ZM140 24.0741V12.963H141.667L147.037 21.6667V12.963H148.519V24.0741H147.037L141.297 15.0001V24.0741H140Z" fill="white" stroke="white" stroke-width="1.18519" stroke-miterlimit="10"/>
<path d="M126.111 40.3704C121.667 40.3704 118.148 43.7038 118.148 48.3334C118.148 52.7779 121.667 56.2964 126.111 56.2964C130.556 56.2964 134.074 52.963 134.074 48.3334C134.074 43.5186 130.556 40.3704 126.111 40.3704ZM126.111 52.963C123.704 52.963 121.667 50.926 121.667 48.1482C121.667 45.3704 123.704 43.3334 126.111 43.3334C128.519 43.3334 130.556 45.1853 130.556 48.1482C130.556 50.926 128.519 52.963 126.111 52.963ZM108.889 40.3704C104.445 40.3704 100.926 43.7038 100.926 48.3334C100.926 52.7779 104.445 56.2964 108.889 56.2964C113.334 56.2964 116.852 52.963 116.852 48.3334C116.852 43.5186 113.334 40.3704 108.889 40.3704ZM108.889 52.963C106.482 52.963 104.445 50.926 104.445 48.1482C104.445 45.3704 106.482 43.3334 108.889 43.3334C111.297 43.3334 113.334 45.1853 113.334 48.1482C113.334 50.926 111.297 52.963 108.889 52.963ZM88.3336 42.7779V46.1112H96.2965C96.1113 47.963 95.3706 49.4445 94.4447 50.3705C93.3336 51.4816 91.4817 52.7779 88.3336 52.7779C83.3336 52.7779 79.6298 48.889 79.6298 43.889C79.6298 38.889 83.5187 35.0001 88.3336 35.0001C90.9261 35.0001 92.9632 36.1112 94.4447 37.4075L96.8521 35.0001C94.815 33.1482 92.2224 31.6667 88.5187 31.6667C81.8521 31.6667 76.1113 37.2223 76.1113 43.889C76.1113 50.5556 81.8521 56.1112 88.5187 56.1112C92.2224 56.1112 94.815 55.0001 97.0373 52.5927C99.2595 50.3704 100 47.2223 100 44.8149C100 44.0742 100 43.3334 99.815 42.7779H88.3336ZM172.408 45.3704C171.667 43.5186 169.815 40.3704 165.741 40.3704C161.667 40.3704 158.334 43.5186 158.334 48.3334C158.334 52.7779 161.667 56.2964 166.111 56.2964C169.63 56.2964 171.852 54.0742 172.593 52.7779L170 50.926C169.074 52.2223 167.963 53.1482 166.111 53.1482C164.259 53.1482 163.148 52.4075 162.222 50.7408L172.778 46.2964L172.408 45.3704ZM161.667 47.963C161.667 45.0001 164.074 43.3334 165.741 43.3334C167.037 43.3334 168.334 44.0742 168.704 45.0001L161.667 47.963ZM152.963 55.5556H156.482V32.4075H152.963V55.5556ZM147.408 42.0371C146.482 41.1112 145 40.1853 143.148 40.1853C139.259 40.1853 135.556 43.7038 135.556 48.1482C135.556 52.5927 139.074 55.926 143.148 55.926C145 55.926 146.482 55.0001 147.222 54.0742H147.408V55.1853C147.408 58.1482 145.741 59.8149 143.148 59.8149C141.111 59.8149 139.63 58.3334 139.259 57.0371L136.297 58.3334C137.222 60.3704 139.445 62.963 143.334 62.963C147.408 62.963 150.741 60.5556 150.741 54.8149V40.7408H147.408V42.0371ZM143.334 52.963C140.926 52.963 138.889 50.926 138.889 48.1482C138.889 45.3704 140.926 43.3334 143.334 43.3334C145.741 43.3334 147.593 45.3704 147.593 48.1482C147.593 50.926 145.741 52.963 143.334 52.963ZM188.519 32.4075H180.185V55.5556H183.704V46.8519H188.519C192.408 46.8519 196.111 44.0742 196.111 39.6297C196.111 35.1853 192.408 32.4075 188.519 32.4075ZM188.704 43.5186H183.704V35.5556H188.704C191.297 35.5556 192.778 37.7779 192.778 39.4445C192.593 41.4816 191.111 43.5186 188.704 43.5186ZM210 40.1853C207.408 40.1853 204.815 41.2964 203.889 43.7038L207.037 45.0001C207.778 43.7038 208.889 43.3334 210.185 43.3334C212.037 43.3334 213.704 44.4445 213.889 46.2964V46.4816C213.334 46.1112 211.852 45.5556 210.371 45.5556C207.037 45.5556 203.704 47.4075 203.704 50.7408C203.704 53.889 206.482 55.926 209.445 55.926C211.852 55.926 212.963 54.8149 213.889 53.7038H214.074V55.5556H217.408V46.6667C217.037 42.5927 213.889 40.1853 210 40.1853ZM209.63 52.963C208.519 52.963 206.852 52.4075 206.852 50.926C206.852 49.0742 208.889 48.5186 210.556 48.5186C212.037 48.5186 212.778 48.889 213.704 49.2593C213.334 51.4816 211.482 52.963 209.63 52.963ZM229.074 40.7408L225.185 50.7408H225L220.926 40.7408H217.222L223.334 54.8149L219.815 62.5927H223.334L232.778 40.7408H229.074ZM197.963 55.5556H201.482V32.4075H197.963V55.5556Z" fill="white"/>
<path d="M19.2593 13.8889C18.7037 14.4445 18.5186 15.3704 18.5186 16.4815V57.4074C18.5186 58.5185 18.8889 59.4445 19.4445 60L19.6297 60.1852L42.5926 37.2222V36.8519L19.2593 13.8889Z" fill="url(#paint0_linear_1354_2015)"/>
<path d="M49.9998 45L42.4072 37.4074V36.8519L49.9998 29.2593L50.185 29.4445L59.2591 34.6296C61.8517 36.1111 61.8517 38.5185 59.2591 40L49.9998 45Z" fill="url(#paint1_linear_1354_2015)"/>
<path d="M50.1847 44.8149L42.4069 37.0371L19.2588 60.1853C20.1847 61.1112 21.481 61.1112 23.1477 60.3704L50.1847 44.8149Z" fill="url(#paint2_linear_1354_2015)"/>
<path d="M50.1847 29.2594L23.1477 13.889C21.481 12.9631 20.1847 13.1483 19.2588 14.0742L42.4069 37.0372L50.1847 29.2594Z" fill="url(#paint3_linear_1354_2015)"/>
<path opacity="0.2" d="M49.9995 44.6296L23.1477 59.8148C21.6662 60.7407 20.3699 60.5556 19.444 59.8148L19.2588 60L19.444 60.1852C20.3699 60.9259 21.6662 61.1111 23.1477 60.1852L49.9995 44.6296Z" fill="black"/>
<path opacity="0.12" d="M19.2593 59.8149C18.7037 59.2593 18.5186 58.3334 18.5186 57.2223V57.4075C18.5186 58.5186 18.8889 59.4445 19.4445 60.0001V59.8149H19.2593ZM59.2593 39.4445L50 44.6297L50.1852 44.8149L59.2593 39.6297C60.5556 38.889 61.1111 37.963 61.1111 37.0371C61.1111 37.963 60.3704 38.7038 59.2593 39.4445Z" fill="black"/>
<path opacity="0.25" d="M23.1482 14.0741L59.2593 34.6297C60.3704 35.3704 61.1111 36.1112 61.1111 37.0371C61.1111 36.1112 60.5556 35.1852 59.2593 34.4445L23.1482 13.8889C20.5556 12.4075 18.5186 13.5186 18.5186 16.4815V16.6667C18.5186 13.8889 20.5556 12.5927 23.1482 14.0741Z" fill="white"/>
<defs>
<linearGradient id="paint0_linear_1354_2015" x1="40.3704" y1="16.1297" x2="9.29078" y2="47.2074" gradientUnits="userSpaceOnUse">
<stop stop-color="#00A0FF"/>
<stop offset="0.007" stop-color="#00A1FF"/>
<stop offset="0.26" stop-color="#00BEFF"/>
<stop offset="0.512" stop-color="#00D2FF"/>
<stop offset="0.76" stop-color="#00DFFF"/>
<stop offset="1" stop-color="#00E3FF"/>
</linearGradient>
<linearGradient id="paint1_linear_1354_2015" x1="62.6554" y1="37.0389" x2="17.8461" y2="37.0389" gradientUnits="userSpaceOnUse">
<stop stop-color="#FFE000"/>
<stop offset="0.409" stop-color="#FFBD00"/>
<stop offset="0.775" stop-color="#FFA500"/>
<stop offset="1" stop-color="#FF9C00"/>
</linearGradient>
<linearGradient id="paint2_linear_1354_2015" x1="45.9755" y1="41.289" x2="3.83101" y2="83.4334" gradientUnits="userSpaceOnUse">
<stop stop-color="#FF3A44"/>
<stop offset="1" stop-color="#C31162"/>
</linearGradient>
<linearGradient id="paint3_linear_1354_2015" x1="13.5125" y1="0.326061" x2="32.3329" y2="19.1464" gradientUnits="userSpaceOnUse">
<stop stop-color="#32A071"/>
<stop offset="0.069" stop-color="#2DA771"/>
<stop offset="0.476" stop-color="#15CF74"/>
<stop offset="0.801" stop-color="#06E775"/>
<stop offset="1" stop-color="#00F076"/>
</linearGradient>
</defs>
</svg>
