<svg width="250" height="75" viewBox="0 0 250 75" fill="none" xmlns="http://www.w3.org/2000/svg">
<path d="M248.342 65.3292C248.342 66.2615 248.158 67.1847 247.801 68.0459C247.444 68.9071 246.921 69.6896 246.261 70.3484C245.601 71.0073 244.818 71.5298 243.956 71.8858C243.094 72.242 242.171 72.4247 241.238 72.4238H8.76252C6.87829 72.4257 5.07043 71.6794 3.73652 70.349C2.4026 69.0186 1.65187 67.2129 1.64941 65.3292V8.75249C1.65187 6.86792 2.40231 5.06134 3.73595 3.72943C5.0696 2.39753 6.87744 1.64917 8.76252 1.64868H241.236C242.169 1.64868 243.093 1.83244 243.955 2.18946C244.817 2.54649 245.601 3.06978 246.26 3.72945C246.92 4.38913 247.443 5.17226 247.8 6.03412C248.157 6.89599 248.34 7.8197 248.34 8.75249L248.342 65.3292Z" fill="white"/>
<path d="M241.238 74.0742H8.76215C6.441 74.0737 4.21484 73.1526 2.57215 71.5132C0.929459 69.8737 0.00441651 67.6497 0 65.3291L0 8.75427C0.00343381 6.43258 0.927866 4.20705 2.5705 2.56589C4.21314 0.924734 6.43984 0.00195959 8.76215 0L241.236 0C243.558 0.00293738 245.784 0.926026 247.427 2.56697C249.069 4.20792 249.994 6.43288 249.998 8.75427V65.3291C250.002 70.1527 246.065 74.0742 241.238 74.0742Z" fill="#A6A6A6"/>
<path d="M248.342 65.3292C248.342 66.2615 248.158 67.1847 247.801 68.0459C247.444 68.9071 246.921 69.6896 246.261 70.3484C245.601 71.0073 244.818 71.5298 243.956 71.8858C243.094 72.242 242.171 72.4247 241.238 72.4238H8.76252C6.87829 72.4257 5.07043 71.6794 3.73652 70.349C2.4026 69.0186 1.65187 67.2129 1.64941 65.3292V8.75249C1.65187 6.86792 2.40231 5.06134 3.73595 3.72943C5.0696 2.39753 6.87744 1.64917 8.76252 1.64868H241.236C242.169 1.64868 243.093 1.83244 243.955 2.18946C244.817 2.54649 245.601 3.06978 246.26 3.72945C246.92 4.38913 247.443 5.17226 247.8 6.03412C248.157 6.89599 248.34 7.8197 248.34 8.75249L248.342 65.3292Z" fill="black"/>
<path d="M55.8224 36.6471C55.7687 30.677 60.7121 27.7725 60.9382 27.6372C58.1385 23.5565 53.7991 22.9989 52.2742 22.9545C48.6296 22.571 45.0944 25.1347 43.2378 25.1347C41.3442 25.1347 38.4853 22.9915 35.404 23.0545C31.4389 23.1156 27.7295 25.4107 25.695 28.9746C21.4965 36.2415 24.6278 46.9203 28.6503 52.7942C30.6625 55.6727 33.0138 58.8829 36.0914 58.7699C39.1023 58.6476 40.227 56.8527 43.8604 56.8527C47.4605 56.8527 48.5166 58.7699 51.6554 58.6977C54.8867 58.6476 56.9212 55.808 58.863 52.9053C61.1883 49.61 62.1221 46.3609 62.1592 46.1942C62.0851 46.1683 55.8854 43.8009 55.8224 36.6471ZM49.8933 19.0904C51.5127 17.0658 52.6207 14.3113 52.3131 11.5161C49.9693 11.6198 47.038 13.1369 45.3501 15.1171C43.8567 16.862 42.5226 19.7221 42.8673 22.4117C45.5002 22.6081 48.2035 21.0836 49.8933 19.0904Z" fill="white"/>
<path d="M241.238 0H116.717L165.489 74.0742H241.238C243.56 74.0722 245.786 73.1499 247.428 71.5096C249.071 69.8692 249.996 67.6446 250 65.3236V8.75427C249.996 6.43273 249.071 4.20749 247.429 2.56643C245.786 0.92538 243.56 0.00244867 241.238 0Z" fill="url(#paint0_linear_1174_2636)"/>
<path d="M99.433 58.3567H95.2252L92.9202 51.1159H84.9085L82.7129 58.3567H78.6162L86.5557 33.7055H91.4583L99.433 58.3567ZM92.2254 48.078L90.141 41.641C89.9205 40.9834 89.5054 39.4348 88.8977 36.9971H88.8236C88.579 38.0456 88.1881 39.5942 87.6526 41.641L85.6033 48.078H92.2254ZM119.811 49.2505C119.811 52.2736 118.99 54.6631 117.346 56.4173C115.875 57.9789 114.046 58.7587 111.866 58.7587C109.511 58.7587 107.817 57.9196 106.789 56.2376V65.5643H102.839V46.4238C102.839 44.5251 102.789 42.5783 102.692 40.5815H106.166L106.387 43.3989H106.461C107.778 41.2761 109.778 40.2147 112.46 40.2147C114.558 40.2147 116.309 41.0427 117.71 42.7006C119.108 44.3621 119.811 46.5442 119.811 49.2505ZM115.786 49.395C115.786 47.6649 115.397 46.2386 114.615 45.1142C113.761 43.9454 112.614 43.36 111.176 43.36C110.202 43.36 109.316 43.686 108.525 44.3288C107.732 44.9771 107.213 45.8237 106.97 46.8721C106.862 47.2642 106.801 47.6677 106.787 48.0743V51.0399C106.787 52.331 107.184 53.422 107.977 54.3149C108.77 55.204 109.8 55.6504 111.067 55.6504C112.555 55.6504 113.713 55.0744 114.541 53.9314C115.371 52.7848 115.786 51.2733 115.786 49.395ZM140.261 49.2505C140.261 52.2736 139.44 54.6631 137.796 56.4173C136.323 57.9789 134.496 58.7587 132.314 58.7587C129.959 58.7587 128.265 57.9196 127.237 56.2376V65.5643H123.287V46.4238C123.287 44.5251 123.237 42.5783 123.14 40.5815H126.614L126.835 43.3989H126.909C128.225 41.2761 130.224 40.2147 132.909 40.2147C135.004 40.2147 136.755 41.0427 138.16 42.7006C139.557 44.3621 140.261 46.5442 140.261 49.2505ZM136.234 49.395C136.234 47.6649 135.843 46.2386 135.062 45.1142C134.207 43.9454 133.064 43.36 131.626 43.36C130.652 43.36 129.766 43.686 128.971 44.3288C128.178 44.9771 127.661 45.8237 127.419 46.8721C127.298 47.3611 127.233 47.7594 127.233 48.0743V51.0399C127.233 52.331 127.632 53.422 128.421 54.3149C129.214 55.2022 130.244 55.6504 131.515 55.6504C133.005 55.6504 134.163 55.0744 134.989 53.9314C135.819 52.7848 136.234 51.2733 136.234 49.395ZM163.125 51.4419C163.125 53.5406 162.391 55.2466 160.933 56.5637C159.328 58.0011 157.088 58.7217 154.216 58.7217C151.563 58.7217 149.436 58.2104 147.831 57.186L148.745 53.8944C150.477 54.9206 152.38 55.4319 154.452 55.4319C155.941 55.4319 157.099 55.0947 157.926 54.426C158.754 53.7555 159.173 52.8589 159.173 51.7401C159.173 50.738 158.826 49.8988 158.146 49.2153C157.463 48.5337 156.332 47.8983 154.744 47.3148C150.427 45.7051 148.267 43.3507 148.267 40.2536C148.267 38.2308 149.03 36.5748 150.553 35.28C152.076 33.987 154.096 33.3406 156.608 33.3406C158.852 33.3406 160.722 33.7314 162.206 34.5113L161.215 37.7307C159.818 36.9749 158.241 36.597 156.477 36.597C155.083 36.597 153.99 36.9397 153.208 37.6214C152.551 38.2308 152.217 38.9736 152.217 39.8553C152.217 40.8278 152.597 41.6355 153.353 42.269C154.009 42.8525 155.206 43.4878 156.936 44.1695C159.06 45.0253 160.62 46.0219 161.618 47.1666C162.625 48.3114 163.125 49.7395 163.125 51.4419ZM176.219 43.5452H171.865V52.1754C171.865 54.3705 172.632 55.4652 174.17 55.4652C174.876 55.4652 175.461 55.4059 175.924 55.2818L176.034 58.2808C175.256 58.5716 174.231 58.7179 172.962 58.7179C171.402 58.7179 170.182 58.2419 169.302 57.2898C168.426 56.3377 167.985 54.7428 167.985 52.4977V43.5378H165.391V40.5741H167.985V37.3194L171.865 36.1488V40.5741H176.219V43.5452ZM195.826 49.3228C195.826 52.055 195.044 54.2982 193.484 56.0524C191.852 57.8585 189.68 58.7587 186.973 58.7587C184.36 58.7587 182.283 57.8936 180.734 56.1654C179.185 54.4334 178.411 52.2514 178.411 49.6191C178.411 46.8647 179.211 44.6085 180.807 42.8543C182.406 41.0983 184.559 40.2203 187.266 40.2203C189.875 40.2203 191.97 41.0872 193.556 42.8173C195.072 44.4955 195.826 46.6628 195.826 49.3228ZM191.731 49.4135C191.731 47.7853 191.379 46.3886 190.673 45.2198C189.845 43.8083 188.659 43.1025 187.123 43.1025C185.541 43.1025 184.327 43.8083 183.501 45.2198C182.793 46.3886 182.441 47.8094 182.441 49.4876C182.441 51.1177 182.793 52.5181 183.501 53.6832C184.355 55.0947 185.546 55.8005 187.09 55.8005C188.6 55.8005 189.784 55.0799 190.64 53.648C191.366 52.4514 191.731 51.0455 191.731 49.4135ZM208.672 44.0546C208.261 43.9805 207.844 43.9439 207.427 43.9454C206.037 43.9454 204.962 44.4677 204.206 45.5199C203.55 46.446 203.221 47.6167 203.221 49.0301V58.3567H199.27V46.1793C199.274 44.3134 199.236 42.4476 199.155 40.5833H202.596L202.741 43.9843H202.85C203.269 42.8154 203.925 41.8726 204.825 41.1668C205.649 40.5501 206.651 40.2162 207.68 40.2147C208.045 40.2147 208.375 40.2406 208.668 40.2869L208.672 44.0546ZM226.339 48.6281C226.349 49.2285 226.3 49.8284 226.194 50.4194H214.343C214.388 52.1754 214.962 53.5202 216.063 54.4464C217.061 55.2726 218.353 55.6875 219.939 55.6875C221.694 55.6875 223.294 55.4096 224.734 54.8484L225.353 57.588C223.671 58.3215 221.684 58.6865 219.392 58.6865C216.635 58.6865 214.471 57.8751 212.896 56.2562C211.325 54.6353 210.538 52.457 210.538 49.7284C210.538 47.0499 211.269 44.8178 212.735 43.0377C214.269 41.1372 216.343 40.1869 218.951 40.1869C221.514 40.1869 223.454 41.1372 224.771 43.0377C225.814 44.5437 226.339 46.4109 226.339 48.6281ZM222.572 47.6038C222.6 46.4312 222.34 45.4217 221.805 44.5677C221.121 43.4674 220.069 42.9191 218.659 42.9191C217.367 42.9191 216.315 43.4545 215.514 44.5288C214.857 45.3828 214.466 46.409 214.345 47.6001L222.572 47.6038Z" fill="white"/>
<path d="M83.7691 24.9901C82.6704 24.9901 81.7199 24.9364 80.9287 24.8456V12.9275C82.0353 12.7566 83.1535 12.6724 84.2731 12.6756C88.8033 12.6756 90.8897 14.904 90.8897 18.5365C90.8897 22.7265 88.4254 24.9901 83.7691 24.9901ZM84.4325 14.2038C83.821 14.2038 83.3004 14.2409 82.8686 14.3298V23.3897C83.1021 23.4267 83.5505 23.4434 84.1805 23.4434C87.1487 23.4434 88.8385 21.754 88.8385 18.5902C88.8385 15.7691 87.3099 14.2038 84.4325 14.2038ZM97.3913 25.0809C94.8381 25.0809 93.1835 23.1748 93.1835 20.5871C93.1835 17.89 94.8733 15.9673 97.5358 15.9673C100.052 15.9673 101.744 17.7826 101.744 20.4444C101.744 23.1748 100 25.0809 97.3913 25.0809ZM97.4654 17.3862C96.0628 17.3862 95.1642 18.6976 95.1642 20.5315C95.1642 22.3301 96.0813 23.6416 97.4469 23.6416C98.8124 23.6416 99.7296 22.2394 99.7296 20.4944C99.7296 18.7162 98.831 17.3862 97.4654 17.3862ZM116.303 16.1469L113.57 24.8827H111.79L110.658 21.089C110.376 20.1611 110.142 19.2195 109.956 18.2679H109.918C109.776 19.22 109.505 20.174 109.218 21.089L108.014 24.8827H106.215L103.643 16.1469H105.638L106.628 20.2999C106.861 21.2891 107.058 22.2227 107.221 23.1044H107.258C107.4 22.369 107.634 21.4503 107.977 20.3185L109.218 16.1488H110.8L111.988 20.2295C112.275 21.2187 112.509 22.1894 112.69 23.1063H112.742C112.868 22.2079 113.066 21.2539 113.335 20.2295L114.397 16.1488L116.303 16.1469ZM126.364 24.8827H124.423V19.8665C124.423 18.3216 123.83 17.5473 122.661 17.5473C121.51 17.5473 120.719 18.5365 120.719 19.6868V24.8827H118.777V18.6439C118.777 17.8715 118.758 17.0435 118.705 16.1451H120.413L120.504 17.4936H120.558C121.08 16.56 122.14 15.9673 123.328 15.9673C125.162 15.9673 126.366 17.3695 126.366 19.6516L126.364 24.8827ZM131.719 24.8827H129.775V12.1384H131.719V24.8827ZM138.799 25.0809C136.248 25.0809 134.591 23.1748 134.591 20.5871C134.591 17.89 136.281 15.9673 138.942 15.9673C141.46 15.9673 143.149 17.7826 143.149 20.4444C143.151 23.1748 141.406 25.0809 138.799 25.0809ZM138.871 17.3862C137.469 17.3862 136.57 18.6976 136.57 20.5315C136.57 22.3301 137.489 23.6416 138.851 23.6416C140.218 23.6416 141.133 22.2394 141.133 20.4944C141.135 18.7162 140.239 17.3862 138.871 17.3862ZM150.805 24.8827L150.665 23.8769H150.613C150.02 24.6863 149.154 25.0809 148.058 25.0809C146.492 25.0809 145.38 23.9843 145.38 22.5098C145.38 20.3537 147.25 19.2385 150.487 19.2385V19.0774C150.487 17.9271 149.877 17.351 148.673 17.351C147.811 17.351 147.055 17.5677 146.39 17.9993L145.995 16.723C146.803 16.2192 147.811 15.9673 148.995 15.9673C151.278 15.9673 152.43 17.1713 152.43 19.5812V22.7988C152.43 23.6805 152.469 24.364 152.556 24.8845L150.805 24.8827ZM150.539 20.5315C148.382 20.5315 147.3 21.0539 147.3 22.2931C147.3 23.21 147.857 23.6583 148.632 23.6583C149.62 23.6583 150.539 22.9044 150.539 21.88V20.5315ZM161.86 24.8827L161.769 23.4804H161.715C161.157 24.54 160.22 25.0809 158.91 25.0809C156.803 25.0809 155.243 23.2285 155.243 20.6223C155.243 17.89 156.86 15.9654 159.069 15.9654C160.238 15.9654 161.066 16.36 161.533 17.1528H161.572V12.1384H163.516V22.5283C163.516 23.373 163.536 24.164 163.588 24.8827H161.86ZM161.572 19.7424C161.572 18.5198 160.763 17.4769 159.527 17.4769C158.087 17.4769 157.207 18.7532 157.207 20.55C157.207 22.3116 158.12 23.5175 159.488 23.5175C160.709 23.5175 161.572 22.4561 161.572 21.1983V19.7424ZM175.839 25.0809C173.288 25.0809 171.633 23.1748 171.633 20.5871C171.633 17.89 173.323 15.9673 175.984 15.9673C178.502 15.9673 180.192 17.7826 180.192 20.4444C180.193 23.1748 178.45 25.0809 175.839 25.0809ZM175.912 17.3862C174.511 17.3862 173.612 18.6976 173.612 20.5315C173.612 22.3301 174.529 23.6416 175.893 23.6416C177.26 23.6416 178.176 22.2394 178.176 20.4944C178.179 18.7162 177.281 17.3862 175.912 17.3862ZM190.634 24.8827H188.691V19.8665C188.691 18.3216 188.098 17.5473 186.929 17.5473C185.778 17.5473 184.989 18.5365 184.989 19.6868V24.8827H183.045V18.6439C183.045 17.8715 183.027 17.0435 182.973 16.1451H184.681L184.772 17.4936H184.826C185.346 16.56 186.408 15.9654 187.594 15.9654C189.428 15.9654 190.634 17.3676 190.634 19.6498V24.8827ZM203.699 17.6029H201.562V21.8448C201.562 22.9247 201.937 23.4638 202.693 23.4638C203.035 23.4638 203.323 23.4267 203.554 23.373L203.608 24.8475C203.232 24.992 202.728 25.0642 202.102 25.0642C200.571 25.0642 199.656 24.2195 199.656 22.0078V17.6029H198.381V16.1469H199.656V14.5465L201.562 13.9704V16.1451H203.699V17.6029ZM213.978 24.8827H212.038V19.9035C212.038 18.3401 211.447 17.5492 210.276 17.5492C209.27 17.5492 208.333 18.2327 208.333 19.6164V24.8827H206.393V12.1384H208.333V17.3862H208.372C208.983 16.4341 209.869 15.9654 210.999 15.9654C212.848 15.9654 213.978 17.4028 213.978 19.6868V24.8827ZM224.51 20.9816H218.683C218.72 22.6358 219.815 23.5694 221.436 23.5694C222.298 23.5694 223.091 23.4249 223.791 23.1563L224.093 24.5048C223.267 24.8642 222.294 25.0438 221.162 25.0438C218.429 25.0438 216.811 23.3174 216.811 20.6408C216.811 17.9623 218.468 15.9487 220.943 15.9487C223.176 15.9487 224.577 17.6029 224.577 20.1017C224.589 20.3966 224.567 20.692 224.51 20.9816ZM222.729 19.5979C222.729 18.2494 222.049 17.2973 220.808 17.2973C219.693 17.2973 218.811 18.2679 218.685 19.5979H222.729Z" fill="white"/>
<defs>
<linearGradient id="paint0_linear_1174_2636" x1="183.356" y1="74.2708" x2="183.356" y2="-192.876" gradientUnits="userSpaceOnUse">
<stop stop-color="#1A1A1A" stop-opacity="0.1"/>
<stop offset="0.123" stop-color="#212121" stop-opacity="0.151"/>
<stop offset="0.308" stop-color="#353535" stop-opacity="0.227"/>
<stop offset="0.532" stop-color="#575757" stop-opacity="0.318"/>
<stop offset="0.783" stop-color="#858585" stop-opacity="0.421"/>
<stop offset="1" stop-color="#B3B3B3" stop-opacity="0.51"/>
</linearGradient>
</defs>
</svg>
